<?xml version="1.0" encoding="utf-8"?>
<!-- Generator: Adobe Illustrator 26.0.1, SVG Export Plug-In . SVG Version: 6.00 Build 0)  -->
<svg version="1.1" id="Layer_1" xmlns="http://www.w3.org/2000/svg" xmlns:xlink="http://www.w3.org/1999/xlink" x="0px" y="0px"
	 viewBox="0 0 400 100" style="enable-background:new 0 0 400 100;" xml:space="preserve">
<style type="text/css">
	.st0{fill-rule:evenodd;clip-rule:evenodd;fill:#191818;}
	.st1{fill-rule:evenodd;clip-rule:evenodd;fill:#B6932F;}
	.st2{fill-rule:evenodd;clip-rule:evenodd;fill:#AE8D2C;}
	.st3{fill-rule:evenodd;clip-rule:evenodd;fill:#A7872A;}
	.st4{fill-rule:evenodd;clip-rule:evenodd;fill:#C8A22D;}
</style>
<g>
	<path id="Fill-1_2_" class="st0" d="M120.59,45.94c4.16,0,7.66-3.27,7.66-7.56c0-4-3.5-7.05-7.66-7.05h-8.63v14.61H120.59z
		 M102.29,23.78c0-0.73,0.59-1.38,1.41-1.38h17.48c9.15,0,16.66,7.27,16.66,16.06c0,9.01-7.51,16.35-16.59,16.35h-9.3v17.08
		c0,0.73-0.67,1.38-1.41,1.38h-6.84c-0.82,0-1.41-0.65-1.41-1.38V23.78L102.29,23.78z"/>
	<path id="Fill-2_2_" class="st0" d="M169.24,56.99L162,40.83h-0.22l-7.09,16.15H169.24z M137.99,72.63l22.5-49.42
		c0.22-0.44,0.58-0.81,1.23-0.81h0.72c0.72,0,1.01,0.37,1.23,0.81l22.28,49.42c0.43,0.96-0.15,1.91-1.23,1.91h-6.29
		c-1.08,0-1.59-0.44-2.1-1.47l-3.54-7.93h-21.63l-3.54,7.93c-0.29,0.73-0.94,1.47-2.1,1.47h-6.29
		C138.13,74.54,137.55,73.58,137.99,72.63L137.99,72.63z"/>
	<path id="Fill-3_2_" class="st0" d="M197.69,31.12h-11.45c-0.82,0-1.42-0.65-1.42-1.38v-5.96c0-0.73,0.6-1.38,1.42-1.38h32.71
		c0.82,0,1.42,0.65,1.42,1.38v5.96c0,0.73-0.6,1.38-1.42,1.38H207.5v40.77c0,0.73-0.67,1.38-1.42,1.38h-6.96
		c-0.75,0-1.42-0.65-1.42-1.38V31.12"/>
	<path id="Fill-4_2_" class="st0" d="M249.4,45.58c3.86,0,7.21-3.34,7.21-7.41c0-3.85-3.35-7.05-7.21-7.05h-11.87v14.46H249.4z
		 M227.99,23.78c0-0.73,0.58-1.38,1.38-1.38h20.83c8.74,0,15.88,6.98,15.88,15.62c0,6.69-4.44,12.14-10.78,14.68l9.98,18.46
		c0.51,0.94,0,2.11-1.24,2.11h-7.65c-0.66,0-1.02-0.36-1.17-0.65l-9.69-19.26h-8.08v18.53c0,0.73-0.66,1.38-1.38,1.38h-6.7
		c-0.8,0-1.38-0.65-1.38-1.38V23.78L227.99,23.78z"/>
	<path id="Fill-5_2_" class="st0" d="M278.98,22.4h7.21c0.77,0,1.47,0.65,1.47,1.38v48.11c0,0.73-0.7,1.38-1.47,1.38h-7.21
		c-0.78,0-1.47-0.65-1.47-1.38V23.78C277.51,23.05,278.21,22.4,278.98,22.4z"/>
	<path id="Fill-6_2_" class="st0" d="M341.27,29.34c0.66,0.58,0.66,1.46,0.07,2.05l-4.44,4.6c-0.51,0.59-1.24,0.59-1.82,0
		c-3.06-2.7-7.14-4.31-11.22-4.31c-9.33,0-16.25,7.82-16.25,17.02c0,9.13,6.99,16.88,16.32,16.88c4.37,0,8.09-1.68,11.15-4.16
		c0.58-0.51,1.38-0.44,1.82,0l4.52,4.68c0.58,0.51,0.44,1.46-0.07,1.97c-4.95,4.82-11.22,7.09-17.7,7.09
		c-14.57,0-26.3-11.62-26.3-26.23c0-14.61,11.73-26.38,26.3-26.38C331,22.55,336.32,24.89,341.27,29.34z"/>
	<path id="Fill-8_2_" class="st0" d="M353.36,23.28h6.41c0.95,0,1.75,0.8,1.75,1.75v19.73l18.36-20.75
		c0.29-0.37,0.73-0.73,1.38-0.73h7.29c1.38,0,2.11,1.53,1.17,2.63L370.7,47.39l20.4,24.48c0.73,0.95,0.15,2.56-1.31,2.56h-7.94
		c-0.73,0-1.17-0.29-1.31-0.51l-19.02-23.53v22.29c0,0.95-0.8,1.75-1.75,1.75h-6.41c-1.02,0-1.75-0.8-1.75-1.75V25.03
		C351.61,24.08,352.34,23.28,353.36,23.28z"/>
	<path id="Fill-9_2_" class="st1" d="M37.44,18.4c0.05,0.01,0.1,0.02,0.14,0.03c0.54,0.02,1.08,0.08,1.61,0.18
		c1.5,0.27,2.9,0.8,4.23,1.52c1.44,0.78,2.74,1.74,3.94,2.84c0.36,0.32,0.69,0.67,1.04,1.01c-0.03,0.28-0.06,0.55-0.09,0.83
		c-0.04,0.36-0.08,0.73-0.13,1.09c-0.06,0.49-0.12,0.98-0.18,1.47c-0.04,0.37-0.08,0.74-0.13,1.11c-0.06,0.49-0.12,0.99-0.18,1.48
		c-0.04,0.36-0.08,0.73-0.13,1.09c-0.06,0.5-0.12,1-0.18,1.5c-0.04,0.36-0.08,0.73-0.13,1.09c-0.06,0.49-0.12,0.98-0.18,1.47
		c-0.04,0.37-0.08,0.74-0.13,1.11c-0.06,0.49-0.12,0.99-0.18,1.48c-0.04,0.36-0.08,0.73-0.13,1.09c-0.06,0.5-0.12,1-0.18,1.5
		c-0.04,0.36-0.08,0.73-0.13,1.09c-0.06,0.49-0.12,0.98-0.18,1.46c-0.04,0.37-0.08,0.74-0.13,1.11c-0.06,0.49-0.12,0.99-0.18,1.48
		c-0.04,0.36-0.08,0.73-0.13,1.09c-0.06,0.5-0.12,1-0.18,1.5c-0.04,0.36-0.08,0.71-0.12,1.07c-0.04,0.37-0.1,0.74-0.14,1.11
		c-0.06,0.49-0.11,0.98-0.16,1.47c-0.05,0.41-0.09,0.81-0.14,1.22c0,0.01,0,0.03,0,0.04c-0.07,0.01-0.15,0.02-0.22,0.04
		c-0.71,0.25-1.41,0.5-2.12,0.75c-1.1,0.39-2.19,0.77-3.29,1.15c-0.85,0.3-1.7,0.6-2.55,0.9c-1.17,0.41-2.34,0.82-3.51,1.23
		c-0.89,0.31-1.79,0.63-2.68,0.94c-0.99,0.35-1.98,0.69-2.97,1.03c-0.97,0.34-1.94,0.68-2.92,1.02c-1.02,0.35-2.04,0.71-3.06,1.06
		c-0.84,0.29-1.68,0.58-2.52,0.87c-0.84,0.29-1.68,0.58-2.52,0.87c-0.04,0.01-0.09,0-0.14,0c0.05-0.07,0.11-0.13,0.16-0.19
		c-0.01-0.01-0.01-0.02-0.01-0.02c-0.06-0.02-0.12-0.03-0.18-0.05c-1.02-0.25-2.01-0.58-2.96-1.03c-1.12-0.53-2.15-1.2-3-2.11
		c-1.08-1.16-1.7-2.51-1.84-4.09c-0.01-0.14-0.04-0.27-0.07-0.4c0-0.19,0-0.38,0-0.57c0.01-0.03,0.03-0.06,0.03-0.09
		c0.02-0.18,0.04-0.36,0.06-0.55c0.13-1.03,0.42-2.01,0.85-2.96c0.72-1.56,1.72-2.9,2.98-4.07c1.08-1,2.3-1.8,3.67-2.34
		c0.92-0.36,1.88-0.6,2.87-0.63c0.81-0.03,1.61,0.03,2.42,0.11c0.98,0.09,1.95,0.25,2.92,0.45c1.62,0.34,3.2,0.82,4.76,1.36
		c2.08,0.72,4.12,1.52,6.17,2.32c0.83,0.32,1.65,0.65,2.48,0.98c0.06,0.02,0.12,0.07,0.19,0.03c-0.03-0.09-0.12-0.1-0.18-0.13
		c-1.75-0.86-3.43-1.86-4.98-3.04c-1.91-1.46-3.58-3.14-4.89-5.14c-1.88-2.86-2.87-5.98-2.74-9.42c0.02-0.52,0.06-1.05,0.13-1.57
		c0.24-1.67,0.74-3.25,1.54-4.73c0.87-1.62,2.01-3.02,3.48-4.15c1.89-1.45,4.02-2.25,6.41-2.34c0.03,0,0.06-0.02,0.09-0.03
		C37.04,18.4,37.24,18.4,37.44,18.4z"/>
	<path id="Fill-13_2_" class="st2" d="M58.93,48.54c-0.02,0.09-0.09,0.1-0.15,0.13c-0.39,0.14-0.77,0.28-1.16,0.42
		c-0.93,0.33-1.86,0.67-2.79,1c-0.55,0.2-1.11,0.39-1.67,0.59c-1.11,0.4-2.22,0.8-3.33,1.19c-0.56,0.2-1.12,0.4-1.68,0.6
		c-0.7,0.25-1.4,0.5-2.1,0.75c-0.05,0.02-0.1,0.05-0.15,0.08c-0.25,0.08-0.51,0.17-0.76,0.25c-0.07,0.02-0.13,0.04-0.2,0.06
		c0.05-0.42,0.1-0.83,0.14-1.25c0.06-0.5,0.11-1,0.17-1.5c0.04-0.38,0.1-0.76,0.14-1.13c0.04-0.37,0.08-0.73,0.12-1.1
		c0.06-0.51,0.12-1.03,0.18-1.54c0.04-0.37,0.08-0.75,0.13-1.12c0.06-0.51,0.12-1.01,0.18-1.52c0.04-0.38,0.08-0.76,0.13-1.14
		c0.06-0.5,0.12-1,0.18-1.5c0.04-0.37,0.08-0.75,0.13-1.12c0.06-0.51,0.12-1.03,0.18-1.54c0.04-0.37,0.08-0.74,0.13-1.12
		c0.06-0.51,0.12-1.01,0.18-1.52c0.04-0.38,0.08-0.76,0.13-1.14c0.06-0.5,0.12-1,0.18-1.5c0.04-0.37,0.08-0.75,0.13-1.12
		c0.06-0.51,0.12-1.03,0.18-1.54c0.04-0.37,0.08-0.75,0.13-1.12c0.06-0.51,0.12-1.01,0.18-1.52c0.04-0.38,0.08-0.76,0.13-1.14
		c0.06-0.5,0.12-1,0.18-1.5c0.04-0.37,0.09-0.75,0.13-1.12c0.03-0.28,0.06-0.57,0.09-0.85c0.08,0.04,0.11-0.03,0.15-0.07
		c0.34-0.34,0.66-0.68,1.02-1c1.61-1.47,3.42-2.56,5.51-3.17c1.19-0.34,2.41-0.5,3.64-0.43c2.57,0.14,4.8,1.08,6.68,2.86
		c1.19,1.13,2.06,2.48,2.67,4.01c0.45,1.12,0.73,2.27,0.89,3.47c0.09,0.71,0.14,1.43,0.14,2.15c0,1.14-0.1,2.26-0.29,3.38
		c-0.19,1.13-0.46,2.24-0.8,3.34c-0.43,1.38-1.13,2.62-2.02,3.75c-1.05,1.34-2.3,2.47-3.66,3.47c-1.84,1.35-3.83,2.42-5.9,3.34
		c-0.06,0.03-0.13,0.06-0.19,0.09c-0.03,0.02-0.07,0.03-0.1,0.05c0,0.01,0.01,0.02,0.01,0.03c0.03-0.01,0.06-0.02,0.09-0.04
		c0.38-0.09,0.77-0.19,1.15-0.28c0.22-0.05,0.45-0.11,0.67-0.16C58.33,48.68,58.63,48.61,58.93,48.54"/>
	<path id="Fill-10_2_" class="st3" d="M44.96,53.02c0.07-0.02,0.13-0.04,0.2-0.06c0.25-0.08,0.5-0.16,0.75-0.24
		c0.06,0.04,0.12,0.09,0.18,0.13c0.41,0.2,0.83,0.4,1.24,0.61c0.36,0.18,0.73,0.35,1.09,0.53c0.89,0.43,1.78,0.87,2.67,1.3
		c0.7,0.34,1.4,0.67,2.09,1.01c0.85,0.41,1.7,0.83,2.55,1.24c0.77,0.37,1.53,0.74,2.3,1.11c0.83,0.4,1.67,0.81,2.5,1.21
		c0.78,0.38,1.57,0.76,2.35,1.14c0.81,0.39,1.62,0.79,2.43,1.18c0.78,0.38,1.55,0.75,2.33,1.13c0.84,0.41,1.68,0.81,2.52,1.22
		c0.73,0.36,1.46,0.71,2.19,1.07c0.05,0.02,0.08,0.07,0.12,0.11c-0.05,0.01-0.1,0.02-0.17,0.03c0.07,0.1,0.12,0.17,0.18,0.25
		c0.83,1.16,1.49,2.4,1.83,3.8c0.33,1.34,0.33,2.68-0.06,4c-0.43,1.49-1.27,2.74-2.36,3.82c-0.71,0.7-1.51,1.3-2.37,1.81
		c-2.19,1.28-4.56,1.96-7.08,2.13c-0.05,0-0.09,0.02-0.14,0.03c-0.38,0-0.76,0-1.14,0c-0.11,0-0.21-0.01-0.32-0.01
		c-0.17-0.01-0.35-0.02-0.52-0.03c-0.5-0.06-1-0.11-1.5-0.19c-1.46-0.24-2.85-0.71-4.15-1.41c-2.2-1.17-3.91-2.86-5.18-5
		c-1.43-2.41-2.13-5.04-2.45-7.8c-0.06-0.56-0.12-1.12-0.18-1.68c-0.07-0.63-0.13-1.26-0.2-1.88c-0.07-0.65-0.14-1.29-0.21-1.94
		c-0.07-0.65-0.14-1.31-0.21-1.96c-0.04-0.39-0.08-0.77-0.13-1.16c-0.04,0.06-0.05,0.13-0.05,0.2c-0.04,0.9-0.09,1.8-0.11,2.71
		c-0.03,1.02-0.05,2.03-0.05,3.05c0,1.25,0.01,2.5,0.03,3.75c0,0.36,0.01,0.72,0.02,1.08c0.04,0.97,0.08,1.93,0.14,2.9
		c0.04,0.77,0.09,1.54,0.17,2.31c0.11,1.09,0.22,2.17,0.37,3.26c0.14,1.03,0.34,2.04,0.51,3.06c0.01,0.04,0.01,0.08,0.01,0.13
		c-0.05,0-0.09,0-0.13,0c-0.6-0.02-1.2-0.04-1.79-0.06c-0.45-0.02-0.91-0.04-1.36-0.05c-0.02-0.7,0.01-1.4-0.03-2.1
		c-0.05-0.72,0.01-1.44-0.04-2.16c-0.04-0.68,0.01-1.36-0.04-2.05c-0.05-0.72,0.01-1.45-0.04-2.18c-0.05-0.69,0.01-1.37-0.04-2.06
		c-0.05-0.74,0-1.49-0.04-2.23c-0.04-0.86-0.01-1.73-0.01-2.6c0-0.07,0-0.14,0.01-0.21c0.02-0.22,0.04-0.44,0.06-0.66
		c0.03-0.32,0.05-0.64,0.08-0.96c0.03-0.33,0.07-0.66,0.1-1c0.03-0.29,0.06-0.58,0.09-0.86c0.03-0.29,0.06-0.59,0.1-0.88
		c0.03-0.29,0.06-0.59,0.09-0.88c0.04-0.42,0.09-0.84,0.14-1.26c0.03-0.28,0.06-0.55,0.09-0.83c0.04-0.39,0.09-0.79,0.14-1.18
		c0.04-0.39,0.08-0.79,0.12-1.19c0.04-0.39,0.09-0.79,0.14-1.18c0.05-0.45,0.1-0.89,0.15-1.33C44.96,53.05,44.96,53.04,44.96,53.02z
		"/>
	<path id="Fill-12_2_" class="st1" d="M59.91,48.14c0.86-0.15,1.72-0.3,2.59-0.43c0.78-0.11,1.57-0.21,2.35-0.28
		c0.8-0.08,1.6-0.13,2.41-0.17c0.91-0.04,1.83-0.04,2.74,0.02c1.39,0.08,2.76,0.27,4.08,0.71c1.04,0.34,1.99,0.82,2.79,1.54
		c0.35,0.32,0.65,0.69,0.94,1.07c1,1.35,1.65,2.84,1.99,4.46c0.11,0.52,0.19,1.04,0.2,1.56c0,0.06,0.02,0.12,0.03,0.18
		c0,0.4,0,0.79,0,1.19c-0.01,0.04-0.02,0.08-0.03,0.12c-0.01,0.15,0,0.3-0.02,0.45c-0.11,0.91-0.31,1.81-0.68,2.66
		c-0.41,0.97-0.98,1.84-1.76,2.58c-0.97,0.92-2.14,1.51-3.48,1.8c-0.58,0.12-1.16,0.2-1.76,0.19c-0.04-0.04-0.07-0.09-0.12-0.11
		c-0.75-0.35-1.5-0.7-2.26-1.05c-0.86-0.4-1.73-0.8-2.59-1.2c-0.8-0.37-1.6-0.74-2.4-1.11c-0.83-0.39-1.67-0.77-2.51-1.16
		c-0.81-0.37-1.61-0.74-2.42-1.12c-0.86-0.4-1.72-0.79-2.58-1.19c-0.79-0.36-1.58-0.73-2.37-1.09c-0.88-0.4-1.75-0.81-2.63-1.22
		c-0.72-0.33-1.44-0.66-2.16-0.99c-0.92-0.42-1.83-0.85-2.75-1.27c-0.37-0.17-0.75-0.34-1.12-0.52c-0.43-0.2-0.85-0.39-1.28-0.59
		c-0.07-0.03-0.13-0.08-0.19-0.12c0.05-0.03,0.1-0.06,0.15-0.08c0.71-0.24,1.42-0.48,2.13-0.72c0.57-0.19,1.14-0.38,1.71-0.57
		c1.13-0.38,2.25-0.76,3.38-1.14c0.56-0.19,1.13-0.38,1.69-0.57c0.94-0.32,1.88-0.64,2.83-0.96"/>
	<path id="Fill-14_2_" class="st4" d="M43.94,80.9c-0.36-0.01-0.72-0.01-1.08-0.02c-0.58-0.02-1.15-0.03-1.73-0.05
		c-0.02,0-0.05,0-0.08-0.01c-0.01-0.04-0.02-0.09-0.02-0.13c0.01-0.71,0.02-1.41,0.03-2.12c0.01-1.1,0.02-2.2,0.04-3.3
		c0.01-0.79,0.02-1.58,0.04-2.36c0.02-0.9,0.03-1.79,0.05-2.69c0.01-0.59,0.02-1.18,0.04-1.77c0.02-1.07,0.05-2.15,0.08-3.22
		c0.02-0.85,0.05-1.7,0.08-2.55c0.04-1.09,0.09-2.17,0.13-3.26c0.01-0.13,0-0.27-0.02-0.4c-0.04,0.27-0.08,0.54-0.13,0.81
		c-0.49,2.97-1.27,5.86-2.54,8.61c-0.82,1.77-1.83,3.43-3.09,4.92c-1.36,1.61-2.96,2.95-4.83,3.93c-1.54,0.81-3.17,1.34-4.9,1.56
		c-0.6,0.08-1.2,0.13-1.8,0.13c-2.64-0.01-5.12-0.64-7.35-2.08c-1.34-0.87-2.45-1.97-3.21-3.38c-0.67-1.23-0.96-2.54-0.87-3.93
		c0.08-1.28,0.48-2.46,1.09-3.58c0.55-1.01,1.25-1.92,2.05-2.76c0.13-0.13,0.26-0.26,0.39-0.39c0.05,0,0.1,0.02,0.14,0
		c0.85-0.29,1.7-0.58,2.55-0.87s1.7-0.59,2.54-0.88c1.03-0.36,2.06-0.71,3.09-1.07c0.98-0.34,1.96-0.68,2.94-1.02
		c1-0.35,2-0.69,3-1.04c0.9-0.31,1.8-0.63,2.7-0.94c1.18-0.41,2.36-0.82,3.54-1.23c0.86-0.3,1.72-0.6,2.58-0.9
		c1.11-0.39,2.21-0.77,3.32-1.16c0.71-0.25,1.43-0.5,2.14-0.75c0.07-0.02,0.15-0.03,0.22-0.04c-0.05,0.45-0.1,0.89-0.16,1.34
		c-0.05,0.4-0.1,0.79-0.14,1.19c-0.04,0.4-0.08,0.8-0.13,1.19c-0.04,0.4-0.09,0.79-0.14,1.19c-0.03,0.28-0.06,0.55-0.09,0.83
		c-0.05,0.42-0.09,0.84-0.14,1.27c-0.03,0.3-0.06,0.59-0.09,0.89c-0.03,0.3-0.07,0.59-0.1,0.89C44.04,62,44,62.29,43.97,62.58
		c-0.04,0.33-0.07,0.67-0.11,1c-0.03,0.32-0.06,0.64-0.09,0.97c-0.02,0.22-0.05,0.44-0.07,0.66c-0.01,0.07-0.01,0.14-0.01,0.21
		c0,0.87-0.03,1.74,0.01,2.61c0.03,0.75-0.01,1.5,0.04,2.25c0.05,0.69-0.01,1.39,0.04,2.08c0.05,0.73-0.01,1.46,0.04,2.19
		c0.04,0.69-0.01,1.37,0.04,2.06c0.05,0.72-0.01,1.45,0.04,2.17C43.95,79.49,43.92,80.19,43.94,80.9"/>
	<g>
		<path class="st4" d="M8.59,54.3c0,0.01-0.01,0.02-0.01,0.03c0,0.12,0,0.24,0,0.36L8.59,54.3z"/>
		<path class="st4" d="M47.37,22.96c-1.2-1.1-2.5-2.06-3.94-2.84c-1.33-0.72-2.74-1.25-4.23-1.52c-0.53-0.1-1.07-0.16-1.61-0.18
			c-0.05,0-0.1-0.02-0.14-0.03c-0.2,0-0.41,0-0.61,0c-0.03,0.01-0.06,0.02-0.09,0.03c-2.39,0.09-4.52,0.89-6.41,2.34
			c-1.47,1.13-2.61,2.53-3.48,4.15c-0.8,1.49-1.31,3.07-1.54,4.73c-0.07,0.52-0.11,1.04-0.13,1.57c-0.12,3.44,0.86,6.56,2.74,9.42
			c1.32,2.01,2.99,3.69,4.89,5.14c1.55,1.19,3.23,2.18,4.98,3.04c0.06,0.03,0.15,0.04,0.18,0.13c-0.04,0.02-0.08,0.02-0.12,0
			c3.56,1.87,6.84,3.57,6.84,3.57l0.3,0.35c0.05-0.4,0.09-0.8,0.14-1.2c0.06-0.49,0.11-0.98,0.16-1.47c0.04-0.37,0.1-0.74,0.14-1.11
			c0.04-0.36,0.08-0.71,0.12-1.07c0.06-0.5,0.12-1,0.18-1.5c0.04-0.36,0.08-0.73,0.13-1.09c0.06-0.49,0.12-0.99,0.18-1.48
			c0.04-0.37,0.08-0.74,0.13-1.11c0.06-0.49,0.12-0.98,0.18-1.46c0.04-0.36,0.08-0.73,0.13-1.09c0.06-0.5,0.12-1,0.18-1.5
			c0.04-0.36,0.08-0.73,0.13-1.09c0.06-0.49,0.12-0.99,0.18-1.48c0.04-0.37,0.08-0.74,0.13-1.11c0.06-0.49,0.12-0.98,0.18-1.47
			c0.04-0.36,0.08-0.73,0.13-1.09c0.06-0.5,0.12-1,0.18-1.5c0.04-0.36,0.08-0.73,0.13-1.09c0.06-0.49,0.12-0.99,0.18-1.48
			c0.04-0.37,0.08-0.74,0.13-1.11c0.06-0.49,0.12-0.98,0.18-1.47c0.04-0.36,0.09-0.73,0.13-1.09c0.03-0.28,0.06-0.55,0.09-0.83
			C48.06,23.63,47.73,23.29,47.37,22.96z"/>
	</g>
</g>
</svg>
