<svg id="svg" version="1.1" xmlns="http://www.w3.org/2000/svg" xmlns:xlink="http://www.w3.org/1999/xlink" width="400" height="120" viewBox="0, 0, 400,120"><g id="svgg"><path id="path0" d="M15.458 36.333 C 14.219 37.591,14.167 37.676,14.167 38.421 C 14.167 39.276,14.590 40.167,14.996 40.167 C 15.137 40.167,15.477 40.428,15.752 40.746 C 16.026 41.065,16.344 41.328,16.458 41.330 C 16.573 41.332,16.667 41.414,16.667 41.512 C 16.667 41.781,17.107 42.167,17.415 42.167 C 17.564 42.167,17.640 42.242,17.583 42.333 C 17.527 42.425,17.579 42.501,17.698 42.503 C 17.962 42.506,19.000 43.396,19.000 43.619 C 19.000 43.706,19.193 43.880,19.430 44.007 C 19.666 44.133,19.931 44.371,20.019 44.535 C 20.107 44.699,20.287 44.833,20.419 44.833 C 20.551 44.833,21.055 45.232,21.538 45.720 C 22.021 46.207,22.548 46.655,22.708 46.714 C 22.869 46.774,23.000 46.938,23.000 47.078 C 23.000 47.239,23.154 47.333,23.417 47.333 C 23.646 47.333,23.833 47.414,23.833 47.512 C 23.833 47.743,24.257 48.167,24.488 48.167 C 24.586 48.167,24.667 48.292,24.667 48.444 C 24.667 48.597,24.712 48.677,24.767 48.621 C 24.823 48.566,25.038 48.703,25.245 48.927 C 25.452 49.150,25.744 49.333,25.894 49.333 C 26.044 49.333,26.167 49.446,26.167 49.583 C 26.167 49.721,26.247 49.833,26.345 49.833 C 26.584 49.833,27.000 50.261,27.000 50.506 C 27.000 50.615,27.115 50.658,27.259 50.603 C 27.401 50.548,27.477 50.570,27.427 50.650 C 27.377 50.731,27.542 50.929,27.793 51.091 C 28.044 51.253,28.310 51.486,28.383 51.610 C 28.457 51.733,28.625 51.833,28.758 51.833 C 28.891 51.833,29.000 51.908,29.000 52.000 C 29.000 52.092,29.125 52.167,29.278 52.167 C 29.431 52.167,29.513 52.209,29.461 52.261 C 29.348 52.374,30.255 53.333,30.475 53.333 C 30.559 53.333,30.751 53.521,30.901 53.750 C 31.051 53.979,31.323 54.167,31.504 54.167 C 31.685 54.167,31.833 54.247,31.833 54.345 C 31.833 54.539,32.244 55.000,32.417 55.000 C 32.590 55.000,33.000 55.461,33.000 55.655 C 33.000 55.753,33.138 55.833,33.308 55.833 C 33.477 55.833,34.236 56.431,34.995 57.162 C 35.754 57.893,36.515 58.535,36.687 58.590 C 36.859 58.644,37.000 58.759,37.000 58.845 C 37.000 58.930,37.080 59.000,37.179 59.000 C 37.358 59.000,37.565 59.183,37.970 59.698 C 38.234 60.036,37.972 60.667,37.568 60.667 C 37.428 60.667,37.360 60.742,37.417 60.833 C 37.475 60.928,37.332 61.000,37.083 61.000 C 36.835 61.000,36.691 61.072,36.750 61.167 C 36.807 61.258,36.757 61.333,36.640 61.333 C 36.523 61.333,36.261 61.527,36.058 61.763 C 35.855 62.000,35.552 62.216,35.386 62.244 C 35.220 62.271,35.102 62.378,35.125 62.480 C 35.148 62.583,35.054 62.667,34.917 62.667 C 34.779 62.667,34.667 62.742,34.667 62.833 C 34.667 62.925,34.554 63.000,34.417 63.000 C 34.279 63.000,34.167 63.117,34.167 63.260 C 34.167 63.403,34.091 63.473,33.999 63.416 C 33.907 63.359,33.786 63.429,33.731 63.573 C 33.676 63.716,33.521 63.833,33.387 63.833 C 33.102 63.833,32.667 64.229,32.667 64.488 C 32.667 64.649,32.308 64.745,31.946 64.682 C 31.870 64.669,31.856 64.735,31.914 64.829 C 31.972 64.923,31.947 65.000,31.857 65.000 C 31.768 65.000,31.425 65.263,31.095 65.583 C 30.764 65.904,30.391 66.167,30.265 66.167 C 30.139 66.167,29.992 66.279,29.940 66.417 C 29.887 66.554,29.729 66.667,29.589 66.667 C 29.448 66.667,29.333 66.741,29.333 66.831 C 29.333 66.922,29.032 67.186,28.665 67.418 C 27.741 68.001,27.335 68.368,27.435 68.530 C 27.482 68.605,27.328 68.667,27.093 68.667 C 26.859 68.667,26.667 68.742,26.667 68.833 C 26.667 68.925,26.586 69.000,26.488 69.000 C 26.257 69.000,25.833 69.424,25.833 69.655 C 25.833 69.753,25.683 69.833,25.500 69.833 C 25.317 69.833,25.167 69.908,25.167 70.000 C 25.167 70.092,25.054 70.167,24.917 70.167 C 24.779 70.167,24.667 70.279,24.667 70.417 C 24.667 70.554,24.554 70.667,24.417 70.667 C 24.279 70.667,24.167 70.742,24.167 70.833 C 24.167 70.925,24.044 71.000,23.895 71.000 C 23.745 71.000,23.375 71.262,23.073 71.583 C 22.770 71.904,22.439 72.167,22.337 72.167 C 22.234 72.167,21.977 72.354,21.765 72.583 C 21.552 72.813,21.325 73.000,21.261 73.000 C 21.079 73.000,20.667 73.455,20.667 73.655 C 20.667 73.753,20.523 73.833,20.348 73.833 C 20.172 73.833,19.750 74.104,19.410 74.435 C 19.069 74.765,18.669 75.056,18.520 75.082 C 18.372 75.107,18.271 75.217,18.296 75.326 C 18.321 75.435,18.264 75.477,18.170 75.418 C 18.075 75.360,17.953 75.429,17.898 75.573 C 17.843 75.716,17.693 75.833,17.566 75.833 C 17.438 75.833,17.333 75.908,17.333 76.000 C 17.333 76.092,17.221 76.167,17.083 76.167 C 16.946 76.167,16.833 76.244,16.833 76.339 C 16.833 76.433,16.702 76.561,16.542 76.622 C 16.382 76.684,16.079 76.906,15.868 77.117 C 15.657 77.328,15.392 77.500,15.279 77.500 C 15.166 77.500,14.965 77.650,14.833 77.833 C 14.701 78.017,14.497 78.167,14.380 78.167 C 14.263 78.167,14.167 78.279,14.167 78.417 C 14.167 78.556,14.019 78.667,13.833 78.667 C 13.650 78.667,13.500 78.743,13.500 78.837 C 13.500 78.931,13.313 79.093,13.083 79.197 C 12.854 79.301,12.667 79.487,12.667 79.610 C 12.667 79.733,12.528 79.833,12.359 79.833 C 12.190 79.833,11.781 80.096,11.450 80.417 C 11.120 80.738,10.696 81.000,10.508 81.000 C 10.320 81.000,10.167 81.075,10.167 81.167 C 10.167 81.258,9.985 81.333,9.762 81.333 C 9.539 81.333,9.245 81.446,9.107 81.583 C 8.970 81.721,8.669 81.833,8.438 81.833 C 8.208 81.833,7.973 81.908,7.917 82.000 C 7.860 82.092,7.527 82.167,7.177 82.167 C 6.815 82.167,6.451 82.274,6.333 82.417 C 6.219 82.554,5.985 82.667,5.813 82.667 C 5.641 82.667,5.500 82.742,5.500 82.833 C 5.500 82.925,5.388 83.000,5.250 83.000 C 5.064 83.000,5.000 83.196,5.000 83.762 C 5.000 84.496,5.266 85.000,5.655 85.000 C 5.753 85.000,5.833 85.075,5.833 85.167 C 5.833 85.276,10.750 85.333,20.250 85.333 C 29.750 85.333,34.667 85.276,34.667 85.167 C 34.667 85.075,34.817 85.000,35.000 85.000 C 35.183 85.000,35.333 84.925,35.333 84.833 C 35.333 84.742,35.475 84.667,35.649 84.667 C 35.822 84.667,36.008 84.554,36.060 84.417 C 36.113 84.279,36.271 84.167,36.411 84.167 C 36.552 84.167,36.667 84.092,36.667 84.000 C 36.667 83.908,36.779 83.833,36.917 83.833 C 37.054 83.833,37.167 83.756,37.167 83.661 C 37.167 83.567,37.298 83.441,37.458 83.381 C 37.619 83.322,37.966 83.024,38.230 82.720 C 38.493 82.416,38.854 82.167,39.031 82.167 C 39.208 82.167,39.307 82.092,39.250 82.000 C 39.193 81.908,39.301 81.833,39.490 81.833 C 39.679 81.833,39.833 81.753,39.833 81.655 C 39.833 81.393,40.177 81.095,40.792 80.824 C 41.090 80.693,41.333 80.491,41.333 80.376 C 41.333 80.261,41.414 80.167,41.512 80.167 C 41.743 80.167,42.167 79.743,42.167 79.512 C 42.167 79.414,42.303 79.333,42.469 79.333 C 42.635 79.333,42.931 79.183,43.128 79.000 C 43.325 78.817,43.564 78.667,43.660 78.667 C 43.755 78.667,43.833 78.554,43.833 78.417 C 43.833 78.279,43.946 78.167,44.083 78.167 C 44.221 78.167,44.333 78.092,44.333 78.000 C 44.333 77.908,44.483 77.833,44.667 77.833 C 44.850 77.833,45.000 77.753,45.000 77.655 C 45.000 77.377,45.462 76.982,45.820 76.955 C 45.998 76.942,46.107 76.871,46.062 76.799 C 46.017 76.726,46.070 76.667,46.180 76.667 C 46.419 76.667,47.333 75.742,47.333 75.502 C 47.333 75.409,47.521 75.333,47.750 75.333 C 47.979 75.333,48.167 75.258,48.167 75.167 C 48.167 75.075,48.292 75.000,48.444 75.000 C 48.597 75.000,48.678 74.956,48.625 74.903 C 48.496 74.774,49.109 74.168,49.375 74.161 C 49.667 74.154,50.167 73.751,50.167 73.523 C 50.167 73.419,50.279 73.333,50.417 73.333 C 50.554 73.333,50.667 73.258,50.667 73.167 C 50.667 73.075,50.817 73.000,51.000 73.000 C 51.200 73.000,51.333 72.889,51.333 72.722 C 51.333 72.569,51.379 72.490,51.434 72.545 C 51.490 72.601,51.704 72.463,51.912 72.240 C 52.394 71.719,53.000 71.867,53.000 72.506 C 53.000 72.615,53.115 72.658,53.259 72.603 C 53.401 72.548,53.480 72.565,53.434 72.639 C 53.360 72.758,54.020 73.453,54.125 73.367 C 54.263 73.254,54.667 73.363,54.667 73.513 C 54.667 73.800,56.039 75.000,56.368 75.000 C 56.972 75.000,56.229 75.818,55.575 75.872 C 55.292 75.896,55.123 76.031,55.059 76.287 C 55.007 76.496,54.897 76.667,54.815 76.667 C 54.734 76.667,54.667 76.897,54.667 77.179 C 54.667 78.247,52.310 78.172,84.447 78.125 L 113.750 78.083 113.750 77.168 C 113.750 76.558,113.680 76.245,113.542 76.230 C 113.427 76.218,113.189 76.199,113.014 76.188 C 112.838 76.176,112.450 75.908,112.151 75.591 C 111.853 75.275,111.547 75.054,111.471 75.101 C 111.395 75.148,111.333 75.069,111.333 74.927 C 111.333 74.784,111.221 74.667,111.083 74.667 C 110.946 74.667,110.833 74.572,110.833 74.457 C 110.833 74.341,110.683 74.153,110.500 74.039 C 110.075 73.773,110.010 72.216,110.417 72.060 C 110.580 71.998,110.667 71.738,110.667 71.316 C 110.667 70.959,110.742 70.667,110.833 70.667 C 110.925 70.667,111.000 70.367,111.000 70.000 C 111.000 69.633,111.075 69.333,111.167 69.333 C 111.258 69.333,111.333 69.079,111.333 68.768 C 111.333 68.419,111.429 68.166,111.583 68.106 C 111.747 68.043,111.833 67.783,111.833 67.348 C 111.833 66.984,111.908 66.640,112.000 66.583 C 112.092 66.527,112.167 66.237,112.167 65.940 C 112.167 65.643,112.254 65.313,112.360 65.207 C 112.466 65.101,112.580 64.767,112.613 64.465 C 112.646 64.164,112.746 63.892,112.836 63.861 C 112.926 63.831,113.000 63.554,113.000 63.246 C 113.000 62.938,113.075 62.640,113.167 62.583 C 113.258 62.527,113.333 62.155,113.333 61.758 C 113.333 61.270,113.414 61.005,113.583 60.940 C 113.741 60.879,113.833 60.624,113.833 60.245 C 113.833 59.889,113.901 59.689,114.000 59.750 C 114.103 59.813,114.167 59.530,114.167 59.010 C 114.167 58.400,114.231 58.167,114.399 58.167 C 114.624 58.167,114.689 57.911,114.939 56.042 C 114.991 55.652,115.101 55.333,115.183 55.333 C 115.266 55.333,115.333 55.071,115.333 54.750 C 115.333 54.343,115.409 54.167,115.583 54.167 C 115.769 54.167,115.833 53.972,115.833 53.417 C 115.833 53.004,115.908 52.667,116.000 52.667 C 116.092 52.667,116.167 52.375,116.167 52.018 C 116.167 51.595,116.254 51.336,116.417 51.273 C 116.581 51.210,116.667 50.950,116.667 50.515 C 116.667 50.151,116.742 49.807,116.833 49.750 C 116.925 49.693,117.000 49.389,117.000 49.073 C 117.000 48.758,117.075 48.500,117.167 48.500 C 117.258 48.500,117.324 48.444,117.314 48.375 C 117.232 47.856,117.367 47.333,117.583 47.333 C 117.721 47.333,117.833 47.258,117.833 47.167 C 117.833 47.058,120.662 47.000,125.986 47.000 C 134.513 47.000,134.667 46.991,134.667 46.482 C 134.667 46.309,134.742 46.167,134.833 46.167 C 134.925 46.167,135.000 46.011,135.000 45.821 C 135.000 45.452,135.361 45.000,135.655 45.000 C 135.753 45.000,135.833 44.850,135.833 44.667 C 135.833 44.483,135.908 44.333,136.000 44.333 C 136.092 44.333,136.167 44.257,136.167 44.164 C 136.167 44.070,136.429 43.739,136.750 43.428 C 137.071 43.116,137.333 42.705,137.333 42.514 C 137.333 42.323,137.414 42.167,137.512 42.167 C 137.743 42.167,138.167 41.743,138.167 41.512 C 138.167 41.414,138.238 41.333,138.326 41.333 C 138.532 41.333,139.333 40.532,139.333 40.326 C 139.333 40.238,139.414 40.167,139.512 40.167 C 139.743 40.167,140.167 39.743,140.167 39.512 C 140.167 39.414,140.223 39.333,140.292 39.333 C 140.360 39.333,140.635 39.146,140.901 38.916 C 141.167 38.687,141.455 38.500,141.540 38.500 C 141.625 38.500,141.949 38.237,142.261 37.917 C 142.573 37.596,142.941 37.333,143.080 37.333 C 143.220 37.333,143.333 37.270,143.333 37.193 C 143.333 37.116,143.596 36.911,143.917 36.738 C 144.237 36.566,144.509 36.385,144.520 36.337 C 144.531 36.289,144.549 36.063,144.561 35.833 L 144.583 35.417 107.162 35.378 L 69.740 35.340 69.294 35.753 C 69.049 35.981,68.771 36.167,68.678 36.167 C 68.584 36.167,68.385 36.354,68.235 36.583 C 68.085 36.812,67.867 37.000,67.752 37.000 C 67.637 37.000,67.318 37.263,67.044 37.583 C 66.770 37.904,66.423 38.167,66.273 38.167 C 66.123 38.167,66.000 38.237,66.000 38.324 C 66.000 38.410,65.781 38.611,65.513 38.769 C 65.245 38.927,64.933 39.231,64.818 39.445 C 64.704 39.659,64.484 39.833,64.329 39.833 C 64.175 39.833,63.701 40.171,63.277 40.583 C 62.852 40.996,62.436 41.333,62.351 41.333 C 62.267 41.333,61.813 41.704,61.343 42.157 C 60.873 42.611,60.360 43.024,60.202 43.077 C 59.813 43.207,58.667 44.257,58.667 44.484 C 58.667 44.648,58.312 44.746,57.946 44.682 C 57.870 44.669,57.856 44.735,57.914 44.829 C 57.972 44.923,57.912 45.000,57.781 45.000 C 57.650 45.000,57.318 45.262,57.044 45.583 C 56.770 45.904,56.457 46.167,56.348 46.167 C 56.240 46.167,55.977 46.354,55.765 46.583 C 55.552 46.813,55.293 47.000,55.189 47.000 C 55.085 47.000,55.000 47.075,55.000 47.167 C 55.000 47.258,54.854 47.333,54.675 47.333 C 54.496 47.333,54.271 47.465,54.175 47.625 C 54.008 47.903,53.992 47.903,53.825 47.625 C 53.729 47.465,53.542 47.333,53.410 47.333 C 53.162 47.333,52.644 46.963,52.189 46.458 C 52.044 46.298,51.830 46.167,51.712 46.167 C 51.594 46.167,51.165 45.829,50.759 45.417 C 50.352 45.004,49.865 44.667,49.676 44.667 C 49.488 44.667,49.333 44.584,49.333 44.484 C 49.333 44.323,48.967 43.946,48.094 43.208 C 47.958 43.094,47.768 43.000,47.670 43.000 C 47.572 43.000,47.086 42.574,46.590 42.053 C 46.093 41.532,45.567 41.088,45.420 41.067 C 45.273 41.045,44.824 40.684,44.421 40.264 C 44.019 39.844,43.609 39.500,43.511 39.500 C 43.413 39.500,43.333 39.387,43.333 39.250 C 43.333 39.111,43.185 39.000,43.000 39.000 C 42.570 39.000,42.575 38.702,43.011 38.324 C 43.200 38.160,43.350 37.982,43.344 37.929 C 43.300 37.543,43.359 37.333,43.512 37.333 C 43.736 37.333,44.167 36.912,44.167 36.692 C 44.167 36.602,44.247 36.501,44.344 36.469 C 44.442 36.436,44.564 36.092,44.616 35.705 L 44.711 35.000 30.730 35.011 L 16.750 35.021 15.458 36.333 M99.000 47.833 C 99.000 48.292,98.930 48.667,98.843 48.667 C 98.757 48.667,98.664 48.948,98.635 49.292 C 98.603 49.683,98.505 49.901,98.375 49.875 C 98.233 49.847,98.167 50.070,98.167 50.573 C 98.167 50.981,98.092 51.360,98.000 51.417 C 97.908 51.473,97.833 51.771,97.833 52.079 C 97.833 52.387,97.750 52.667,97.648 52.701 C 97.545 52.735,97.429 53.060,97.390 53.423 C 97.350 53.786,97.246 54.108,97.159 54.139 C 97.072 54.169,97.000 54.488,97.000 54.847 C 97.000 55.206,96.925 55.500,96.833 55.500 C 96.742 55.500,96.667 55.837,96.667 56.250 C 96.667 56.780,96.599 57.000,96.434 57.000 C 96.291 57.000,96.163 57.256,96.101 57.667 C 96.045 58.033,95.953 58.651,95.895 59.039 C 95.838 59.427,95.695 59.821,95.578 59.914 C 95.382 60.071,95.318 60.333,95.059 62.042 C 95.007 62.385,94.898 62.667,94.816 62.667 C 94.734 62.667,94.667 62.932,94.667 63.255 C 94.667 63.579,94.573 63.880,94.458 63.924 C 94.344 63.968,94.230 64.282,94.206 64.622 C 94.181 64.961,94.087 65.313,93.997 65.403 C 93.907 65.493,93.833 65.782,93.833 66.045 C 93.833 66.308,93.721 66.636,93.583 66.774 C 93.446 66.911,93.333 67.281,93.333 67.595 C 93.333 67.910,93.258 68.167,93.167 68.167 C 93.075 68.167,93.000 68.467,93.000 68.833 C 93.000 69.200,92.925 69.500,92.833 69.500 C 92.742 69.500,92.667 69.805,92.667 70.179 C 92.667 70.560,92.557 70.967,92.417 71.107 C 92.279 71.245,92.167 71.539,92.167 71.762 C 92.167 71.985,92.092 72.167,92.000 72.167 C 91.908 72.167,91.833 72.326,91.833 72.520 C 91.833 72.900,90.400 74.394,90.171 74.252 C 90.096 74.206,89.992 74.281,89.939 74.418 C 89.887 74.555,89.654 74.667,89.422 74.667 C 89.190 74.667,89.000 74.742,89.000 74.833 C 89.000 74.925,88.737 75.000,88.417 75.000 C 88.096 75.000,87.833 74.925,87.833 74.833 C 87.833 74.742,87.646 74.667,87.417 74.667 C 87.157 74.667,87.000 74.572,87.000 74.417 C 87.000 74.279,86.883 74.167,86.740 74.167 C 86.597 74.167,86.527 74.092,86.583 74.000 C 86.640 73.908,86.599 73.833,86.492 73.833 C 86.385 73.833,86.150 73.645,85.969 73.415 C 85.788 73.185,85.573 73.038,85.491 73.089 C 85.410 73.139,84.967 72.802,84.507 72.340 C 84.047 71.878,83.598 71.500,83.510 71.500 C 83.421 71.500,83.161 71.313,82.932 71.083 C 82.703 70.854,82.437 70.667,82.341 70.667 C 82.245 70.667,82.167 70.554,82.167 70.417 C 82.167 70.275,82.017 70.167,81.823 70.167 C 81.635 70.167,81.527 70.092,81.583 70.000 C 81.640 69.908,81.532 69.833,81.343 69.833 C 81.154 69.833,81.000 69.753,81.000 69.655 C 81.000 69.455,80.588 69.000,80.406 69.000 C 80.342 69.000,80.146 68.835,79.972 68.634 C 79.797 68.432,79.549 68.252,79.420 68.233 C 79.291 68.214,78.851 67.854,78.441 67.433 C 78.025 67.004,77.543 66.667,77.348 66.667 C 77.150 66.667,77.000 66.559,77.000 66.417 C 77.000 66.279,76.883 66.167,76.740 66.167 C 76.597 66.167,76.527 66.092,76.583 66.000 C 76.640 65.908,76.599 65.833,76.492 65.833 C 76.385 65.833,76.150 65.645,75.969 65.415 C 75.788 65.185,75.573 65.038,75.491 65.089 C 75.410 65.139,74.967 64.802,74.507 64.340 C 74.047 63.878,73.598 63.500,73.510 63.500 C 73.421 63.500,73.161 63.313,72.932 63.083 C 72.703 62.854,72.437 62.667,72.341 62.667 C 72.245 62.667,72.167 62.554,72.167 62.417 C 72.167 62.279,72.050 62.167,71.907 62.167 C 71.764 62.167,71.693 62.092,71.750 62.000 C 71.807 61.908,71.732 61.833,71.585 61.833 C 71.438 61.833,71.144 61.646,70.931 61.417 C 70.719 61.188,70.492 61.000,70.427 61.000 C 70.246 61.000,69.833 60.545,69.833 60.345 C 69.833 60.247,69.721 60.167,69.583 60.167 C 69.446 60.167,69.333 60.092,69.333 60.000 C 69.333 59.908,69.222 59.833,69.085 59.833 C 67.846 59.833,68.197 57.969,69.476 57.752 C 69.627 57.727,69.731 57.622,69.708 57.520 C 69.685 57.417,69.779 57.333,69.917 57.333 C 70.054 57.333,70.167 57.258,70.167 57.167 C 70.167 57.075,70.266 57.000,70.389 57.000 C 70.511 57.000,70.711 56.813,70.833 56.583 C 70.956 56.354,71.188 56.167,71.349 56.167 C 71.511 56.167,71.790 55.979,71.970 55.750 C 72.150 55.521,72.362 55.331,72.441 55.329 C 72.519 55.326,72.771 55.066,73.000 54.750 C 73.240 54.419,73.563 54.174,73.764 54.171 C 73.960 54.169,74.207 53.986,74.333 53.750 C 74.456 53.521,74.640 53.333,74.741 53.333 C 74.843 53.333,75.035 53.183,75.167 53.000 C 75.299 52.817,75.503 52.667,75.620 52.667 C 75.737 52.667,75.833 52.554,75.833 52.417 C 75.833 52.279,75.946 52.167,76.083 52.167 C 76.221 52.167,76.333 52.100,76.333 52.019 C 76.333 51.938,76.491 51.831,76.683 51.781 C 76.876 51.730,76.984 51.609,76.924 51.511 C 76.863 51.413,76.931 51.333,77.073 51.333 C 77.216 51.333,77.333 51.271,77.333 51.195 C 77.333 51.119,77.521 50.956,77.750 50.833 C 77.979 50.711,78.167 50.523,78.167 50.417 C 78.167 50.310,78.373 50.117,78.625 49.987 C 78.877 49.857,79.143 49.657,79.217 49.542 C 79.290 49.427,79.418 49.333,79.500 49.333 C 79.701 49.333,81.333 47.694,81.333 47.492 C 81.333 47.405,81.591 47.333,81.907 47.333 C 82.222 47.333,82.527 47.258,82.583 47.167 C 82.650 47.059,85.585 47.000,90.843 47.000 L 99.000 47.000 99.000 47.833 " stroke="none" fill="#f4f4f4" fill-rule="evenodd"></path><path id="path1" d="M335.500 34.833 C 335.500 34.925,335.200 35.000,334.833 35.000 C 334.467 35.000,334.167 35.067,334.167 35.148 C 334.167 35.230,333.920 35.342,333.620 35.399 C 333.319 35.455,332.965 35.651,332.833 35.834 C 332.701 36.017,332.478 36.168,332.338 36.170 C 332.198 36.171,331.907 36.359,331.691 36.586 C 331.475 36.814,331.231 37.000,331.149 37.000 C 331.067 37.000,331.000 37.112,331.000 37.250 C 331.000 37.387,330.925 37.500,330.833 37.500 C 330.742 37.500,330.667 37.650,330.667 37.833 C 330.667 38.019,330.556 38.167,330.417 38.167 C 330.279 38.167,330.167 38.279,330.167 38.417 C 330.167 38.554,330.092 38.667,330.000 38.667 C 329.908 38.667,329.833 38.809,329.833 38.982 C 329.833 39.156,329.721 39.341,329.583 39.394 C 329.446 39.446,329.333 39.637,329.333 39.818 C 329.333 39.999,329.258 40.193,329.167 40.250 C 329.075 40.307,329.000 40.686,329.000 41.093 C 329.000 41.500,328.925 41.833,328.833 41.833 C 328.741 41.833,328.667 42.278,328.667 42.833 C 328.667 43.611,328.611 43.833,328.417 43.833 C 328.218 43.833,328.167 44.074,328.167 45.000 C 328.167 45.667,328.095 46.167,328.000 46.167 C 327.908 46.167,327.831 46.598,327.828 47.125 C 327.825 47.702,327.725 48.212,327.578 48.407 C 327.428 48.605,327.333 49.105,327.333 49.699 C 327.333 50.233,327.259 50.667,327.167 50.667 C 327.071 50.667,327.000 51.167,327.000 51.833 C 327.000 52.500,326.929 53.000,326.833 53.000 C 326.741 53.000,326.667 53.439,326.667 53.982 C 326.667 54.701,326.600 54.990,326.417 55.060 C 326.227 55.133,326.167 55.440,326.167 56.328 C 326.167 56.998,326.095 57.500,326.000 57.500 C 325.905 57.500,325.833 57.994,325.833 58.649 C 325.833 59.516,325.772 59.821,325.583 59.894 C 325.396 59.965,325.333 60.264,325.333 61.078 C 325.333 61.693,325.261 62.167,325.167 62.167 C 325.074 62.167,325.000 62.608,325.000 63.157 C 325.000 63.701,324.925 64.193,324.833 64.250 C 324.742 64.307,324.667 64.874,324.667 65.510 C 324.667 66.427,324.615 66.667,324.417 66.667 C 324.218 66.667,324.167 66.907,324.167 67.833 C 324.167 68.500,324.095 69.000,324.000 69.000 C 323.908 69.000,323.833 69.440,323.833 69.986 C 323.833 70.608,323.759 70.997,323.632 71.039 C 323.509 71.080,323.405 71.570,323.363 72.303 C 323.326 72.961,323.229 73.500,323.148 73.500 C 323.067 73.500,323.000 74.025,323.000 74.667 C 323.000 75.333,322.929 75.833,322.833 75.833 C 322.735 75.833,322.667 76.417,322.667 77.250 L 322.667 78.667 329.000 78.667 L 335.333 78.667 335.333 77.417 C 335.333 76.417,335.383 76.167,335.583 76.167 C 335.778 76.167,335.833 75.944,335.833 75.167 C 335.833 74.611,335.907 74.167,336.000 74.167 C 336.095 74.167,336.167 73.673,336.167 73.018 C 336.167 72.150,336.228 71.845,336.417 71.773 C 336.606 71.700,336.667 71.393,336.667 70.505 C 336.667 69.835,336.738 69.333,336.833 69.333 C 336.926 69.333,337.000 68.889,337.000 68.333 C 337.000 67.778,337.074 67.333,337.167 67.333 C 337.262 67.333,337.333 66.833,337.333 66.167 C 337.333 65.241,337.385 65.000,337.583 65.000 C 337.782 65.000,337.833 64.759,337.833 63.833 C 337.833 63.167,337.905 62.667,338.000 62.667 C 338.093 62.667,338.167 62.218,338.167 61.655 C 338.167 60.978,338.249 60.560,338.417 60.393 C 338.583 60.227,338.667 59.811,338.667 59.155 C 338.667 58.607,338.741 58.167,338.833 58.167 C 338.929 58.167,339.000 57.667,339.000 57.000 C 339.000 56.333,339.071 55.833,339.167 55.833 C 339.258 55.833,339.333 55.488,339.333 55.066 L 339.333 54.298 339.817 54.816 C 340.083 55.100,340.383 55.333,340.484 55.333 C 340.584 55.333,340.667 55.412,340.667 55.508 C 340.667 55.735,342.265 57.333,342.492 57.333 C 342.588 57.333,342.667 57.412,342.667 57.508 C 342.667 57.603,342.854 57.869,343.083 58.098 C 343.313 58.328,343.500 58.593,343.500 58.688 C 343.500 58.783,344.287 59.645,345.250 60.603 C 346.212 61.561,347.000 62.417,347.000 62.505 C 347.000 62.594,347.056 62.667,347.125 62.667 C 347.338 62.667,348.167 63.445,348.167 63.644 C 348.167 63.748,348.247 63.833,348.345 63.833 C 348.537 63.833,349.000 64.243,349.000 64.412 C 349.000 64.554,349.287 64.897,350.208 65.857 C 350.644 66.311,351.000 66.741,351.000 66.813 C 351.000 66.885,351.188 67.044,351.417 67.167 C 351.646 67.289,351.833 67.457,351.833 67.540 C 351.833 67.748,352.271 68.167,352.488 68.167 C 352.586 68.167,352.667 68.245,352.667 68.341 C 352.667 68.567,353.433 69.333,353.659 69.333 C 353.755 69.333,353.833 69.414,353.833 69.512 C 353.833 69.743,354.257 70.167,354.488 70.167 C 354.586 70.167,354.667 70.245,354.667 70.341 C 354.667 70.567,355.433 71.333,355.659 71.333 C 355.755 71.333,355.833 71.508,355.833 71.722 C 355.833 71.966,355.988 72.193,356.250 72.333 C 356.479 72.456,356.667 72.621,356.667 72.701 C 356.667 72.962,362.473 78.667,362.739 78.667 C 362.883 78.667,363.000 78.742,363.000 78.833 C 363.000 78.925,363.188 79.000,363.417 79.000 C 363.646 79.000,363.833 79.075,363.833 79.167 C 363.833 79.269,364.667 79.333,366.000 79.333 C 367.333 79.333,368.167 79.269,368.167 79.167 C 368.167 79.075,368.461 79.000,368.820 79.000 C 369.443 79.000,370.497 78.556,370.499 78.292 C 370.500 78.223,370.613 78.167,370.750 78.167 C 370.887 78.167,371.000 78.092,371.000 78.000 C 371.000 77.908,371.121 77.833,371.268 77.833 C 371.666 77.833,373.333 76.098,373.333 75.685 C 373.333 75.483,373.440 75.333,373.583 75.333 C 373.722 75.333,373.833 75.185,373.833 75.000 C 373.833 74.817,373.908 74.667,374.000 74.667 C 374.092 74.667,374.167 74.487,374.167 74.268 C 374.167 74.048,374.279 73.826,374.417 73.773 C 374.561 73.718,374.667 73.468,374.667 73.182 C 374.667 72.909,374.742 72.640,374.833 72.583 C 374.925 72.527,375.000 72.072,375.000 71.573 C 375.000 71.075,375.075 70.667,375.167 70.667 C 375.259 70.667,375.333 70.220,375.333 69.661 C 375.333 68.922,375.399 68.631,375.583 68.560 C 375.772 68.488,375.833 68.183,375.833 67.316 C 375.833 66.661,375.905 66.167,376.000 66.167 C 376.095 66.167,376.167 65.673,376.167 65.018 C 376.167 64.150,376.228 63.845,376.417 63.773 C 376.597 63.704,376.667 63.421,376.667 62.755 C 376.667 62.248,376.742 61.833,376.833 61.833 C 376.930 61.833,377.000 61.306,377.000 60.583 C 377.000 59.861,377.070 59.333,377.167 59.333 C 377.259 59.333,377.333 58.889,377.333 58.333 C 377.333 57.556,377.389 57.333,377.583 57.333 C 377.782 57.333,377.833 57.093,377.833 56.167 C 377.833 55.500,377.905 55.000,378.000 55.000 C 378.095 55.000,378.167 54.506,378.167 53.851 C 378.167 52.984,378.228 52.679,378.417 52.606 C 378.597 52.537,378.667 52.255,378.667 51.598 C 378.667 51.097,378.742 50.640,378.833 50.583 C 378.925 50.527,379.000 49.960,379.000 49.323 C 379.000 48.663,379.072 48.167,379.167 48.167 C 379.259 48.167,379.333 47.728,379.333 47.184 C 379.333 46.465,379.400 46.177,379.583 46.106 C 379.770 46.035,379.833 45.736,379.833 44.922 C 379.833 44.307,379.906 43.833,380.000 43.833 C 380.092 43.833,380.167 43.415,380.167 42.905 C 380.167 42.302,380.254 41.889,380.417 41.726 C 380.587 41.556,380.667 41.135,380.667 40.405 C 380.667 39.802,380.740 39.333,380.833 39.333 C 380.929 39.333,381.000 38.833,381.000 38.167 C 381.000 37.500,381.071 37.000,381.167 37.000 C 381.258 37.000,381.333 36.625,381.333 36.167 L 381.333 35.333 375.000 35.333 L 368.667 35.333 368.667 36.000 C 368.667 36.481,368.597 36.667,368.417 36.667 C 368.222 36.667,368.167 36.889,368.167 37.667 C 368.167 38.222,368.093 38.667,368.000 38.667 C 367.905 38.667,367.833 39.161,367.833 39.816 C 367.833 40.683,367.772 40.988,367.583 41.060 C 367.397 41.132,367.333 41.430,367.333 42.235 C 367.333 42.828,367.258 43.360,367.167 43.417 C 367.075 43.473,367.000 43.923,367.000 44.417 C 367.000 44.910,366.925 45.360,366.833 45.417 C 366.742 45.473,366.667 46.040,366.667 46.677 C 366.667 47.594,366.615 47.833,366.417 47.833 C 366.222 47.833,366.167 48.056,366.167 48.833 C 366.167 49.389,366.093 49.833,366.000 49.833 C 365.905 49.833,365.833 50.327,365.833 50.982 C 365.833 51.850,365.772 52.155,365.583 52.227 C 365.394 52.300,365.333 52.607,365.333 53.495 C 365.333 54.165,365.262 54.667,365.167 54.667 C 365.074 54.667,365.000 55.111,365.000 55.667 C 365.000 56.222,364.926 56.667,364.833 56.667 C 364.738 56.667,364.667 57.167,364.667 57.833 C 364.667 58.729,364.612 59.000,364.431 59.000 C 364.301 59.000,364.151 59.094,364.097 59.208 C 364.019 59.375,363.981 59.375,363.903 59.208 C 363.849 59.094,363.731 59.000,363.641 59.000 C 363.457 59.000,363.000 58.584,363.000 58.417 C 363.000 58.244,362.539 57.833,362.345 57.833 C 362.247 57.833,362.167 57.721,362.167 57.583 C 362.167 57.446,362.092 57.333,362.000 57.333 C 361.908 57.333,361.833 57.183,361.833 57.000 C 361.833 56.815,361.722 56.667,361.583 56.667 C 361.446 56.667,361.333 56.608,361.333 56.536 C 361.333 56.338,359.698 54.667,359.504 54.667 C 359.410 54.667,359.333 54.588,359.333 54.492 C 359.333 54.265,357.735 52.667,357.508 52.667 C 357.412 52.667,357.333 52.585,357.333 52.485 C 357.333 52.385,356.996 51.976,356.583 51.575 C 356.171 51.174,355.833 50.760,355.833 50.655 C 355.833 50.549,355.383 50.030,354.833 49.500 C 354.283 48.970,353.833 48.453,353.833 48.352 C 353.833 48.250,353.748 48.167,353.644 48.167 C 353.445 48.167,352.667 47.338,352.667 47.125 C 352.667 47.056,352.586 47.000,352.488 47.000 C 352.257 47.000,351.833 46.576,351.833 46.345 C 351.833 46.247,351.753 46.167,351.655 46.167 C 351.461 46.167,351.000 45.756,351.000 45.583 C 351.000 45.444,350.556 45.000,350.417 45.000 C 350.244 45.000,349.833 44.539,349.833 44.345 C 349.833 44.247,349.721 44.167,349.583 44.167 C 349.446 44.167,349.333 44.044,349.333 43.895 C 349.333 43.745,349.071 43.375,348.750 43.073 C 348.429 42.770,348.167 42.474,348.167 42.416 C 348.167 42.243,347.706 41.833,347.512 41.833 C 347.414 41.833,347.333 41.777,347.333 41.708 C 347.333 41.495,346.555 40.667,346.356 40.667 C 346.252 40.667,346.167 40.586,346.167 40.488 C 346.167 40.257,345.743 39.833,345.512 39.833 C 345.414 39.833,345.333 39.755,345.333 39.659 C 345.333 39.433,344.567 38.667,344.341 38.667 C 344.245 38.667,344.167 38.586,344.167 38.488 C 344.167 38.257,343.743 37.833,343.512 37.833 C 343.414 37.833,343.333 37.678,343.333 37.488 C 343.333 37.119,342.973 36.667,342.679 36.667 C 342.580 36.667,342.500 36.554,342.500 36.417 C 342.500 36.278,342.352 36.167,342.167 36.167 C 341.983 36.167,341.833 36.092,341.833 36.000 C 341.833 35.908,341.721 35.833,341.583 35.833 C 341.446 35.833,341.333 35.721,341.333 35.583 C 341.333 35.444,341.185 35.333,341.000 35.333 C 340.817 35.333,340.667 35.258,340.667 35.167 C 340.667 35.075,340.367 35.000,340.000 35.000 C 339.633 35.000,339.333 34.925,339.333 34.833 C 339.333 34.732,338.583 34.667,337.417 34.667 C 336.250 34.667,335.500 34.732,335.500 34.833 M164.125 35.448 C 163.965 35.490,163.833 35.594,163.833 35.679 C 163.833 35.764,163.313 35.833,162.677 35.833 C 162.040 35.833,161.473 35.908,161.417 36.000 C 161.360 36.092,160.903 36.167,160.402 36.167 C 159.745 36.167,159.463 36.237,159.394 36.417 C 159.328 36.586,159.063 36.667,158.566 36.667 C 158.163 36.667,157.833 36.742,157.833 36.833 C 157.833 36.925,157.571 37.000,157.250 37.000 C 156.929 37.000,156.667 37.075,156.667 37.167 C 156.667 37.258,156.451 37.333,156.187 37.333 C 155.923 37.333,155.614 37.446,155.500 37.583 C 155.386 37.721,155.081 37.833,154.823 37.833 C 154.564 37.833,154.307 37.908,154.250 38.000 C 154.193 38.092,154.009 38.167,153.841 38.167 C 153.673 38.167,153.492 38.279,153.440 38.417 C 153.387 38.554,153.191 38.667,153.005 38.667 C 152.819 38.667,152.667 38.742,152.667 38.833 C 152.667 38.925,152.479 39.000,152.250 39.000 C 152.021 39.000,151.833 39.067,151.833 39.149 C 151.833 39.230,151.646 39.344,151.417 39.402 C 151.188 39.459,151.000 39.580,151.000 39.670 C 151.000 39.760,150.869 39.836,150.708 39.839 C 150.348 39.845,149.833 40.221,149.833 40.477 C 149.833 40.581,149.662 40.667,149.453 40.667 C 149.245 40.667,148.965 40.817,148.833 41.000 C 148.701 41.183,148.509 41.333,148.406 41.333 C 148.303 41.333,148.001 41.521,147.734 41.750 C 147.468 41.979,147.194 42.166,147.125 42.166 C 147.056 42.167,147.000 42.247,147.000 42.345 C 147.000 42.583,146.573 43.000,146.330 43.000 C 146.078 43.000,144.167 44.892,144.167 45.142 C 144.167 45.247,144.092 45.333,144.000 45.333 C 143.908 45.333,143.833 45.446,143.833 45.583 C 143.833 45.721,143.753 45.833,143.655 45.833 C 143.424 45.833,143.000 46.257,143.000 46.488 C 143.000 46.586,142.925 46.667,142.833 46.667 C 142.742 46.667,142.667 46.783,142.667 46.925 C 142.667 47.067,142.479 47.356,142.250 47.569 C 142.021 47.781,141.833 48.115,141.833 48.311 C 141.833 48.516,141.728 48.667,141.583 48.667 C 141.444 48.667,141.333 48.815,141.333 49.000 C 141.333 49.183,141.258 49.333,141.167 49.333 C 141.075 49.333,141.000 49.446,141.000 49.583 C 141.000 49.721,140.925 49.833,140.833 49.833 C 140.742 49.833,140.667 50.096,140.667 50.417 C 140.667 50.824,140.591 51.000,140.417 51.000 C 140.261 51.000,140.167 51.157,140.167 51.417 C 140.167 51.646,140.092 51.833,140.000 51.833 C 139.908 51.833,139.833 52.064,139.833 52.345 C 139.833 52.627,139.721 52.970,139.583 53.107 C 139.446 53.245,139.333 53.652,139.333 54.012 C 139.333 54.372,139.258 54.667,139.167 54.667 C 139.071 54.667,139.000 55.167,139.000 55.833 C 139.000 56.500,138.929 57.000,138.833 57.000 C 138.730 57.000,138.667 57.917,138.667 59.417 C 138.667 60.917,138.730 61.833,138.833 61.833 C 138.929 61.833,139.000 62.333,139.000 63.000 C 139.000 63.667,139.071 64.167,139.167 64.167 C 139.258 64.167,139.333 64.415,139.333 64.718 C 139.333 65.021,139.443 65.415,139.578 65.593 C 139.713 65.771,139.825 66.085,139.828 66.292 C 139.831 66.498,139.908 66.667,140.000 66.667 C 140.092 66.667,140.167 66.894,140.167 67.172 C 140.167 67.467,140.271 67.717,140.417 67.773 C 140.554 67.826,140.667 68.011,140.667 68.184 C 140.667 68.358,140.742 68.500,140.833 68.500 C 140.925 68.500,141.000 68.612,141.000 68.750 C 141.000 68.887,141.075 69.000,141.167 69.000 C 141.258 69.000,141.333 69.109,141.333 69.242 C 141.333 69.376,141.521 69.672,141.750 69.902 C 141.979 70.131,142.167 70.424,142.167 70.552 C 142.167 70.681,142.354 70.927,142.583 71.100 C 142.813 71.272,143.000 71.475,143.000 71.551 C 143.000 71.750,143.443 72.167,143.655 72.167 C 143.753 72.167,143.833 72.247,143.833 72.345 C 143.833 72.557,144.250 73.000,144.449 73.000 C 144.525 73.000,144.728 73.188,144.900 73.417 C 145.073 73.646,145.320 73.833,145.451 73.833 C 145.582 73.833,145.937 74.096,146.239 74.417 C 146.542 74.737,146.912 75.000,147.061 75.000 C 147.211 75.000,147.333 75.075,147.333 75.167 C 147.333 75.258,147.521 75.333,147.750 75.333 C 148.009 75.333,148.167 75.428,148.167 75.583 C 148.167 75.721,148.279 75.833,148.417 75.833 C 148.554 75.833,148.667 75.908,148.667 76.000 C 148.667 76.092,148.929 76.167,149.250 76.167 C 149.657 76.167,149.833 76.242,149.833 76.417 C 149.833 76.572,149.991 76.667,150.250 76.667 C 150.479 76.667,150.667 76.742,150.667 76.833 C 150.667 76.925,150.929 77.000,151.250 77.000 C 151.571 77.000,151.833 77.075,151.833 77.167 C 151.833 77.258,152.096 77.333,152.417 77.333 C 152.824 77.333,153.000 77.409,153.000 77.583 C 153.000 77.772,153.204 77.833,153.833 77.833 C 154.292 77.833,154.667 77.908,154.667 78.000 C 154.667 78.092,155.105 78.167,155.649 78.167 C 156.368 78.167,156.657 78.234,156.727 78.417 C 156.811 78.636,158.449 78.667,170.078 78.667 C 181.749 78.667,183.333 78.637,183.333 78.417 C 183.333 78.279,183.446 78.167,183.583 78.167 C 183.721 78.167,183.833 78.110,183.834 78.042 C 183.834 77.829,184.612 77.000,184.811 77.000 C 184.915 77.000,185.000 76.905,185.000 76.790 C 185.000 76.674,185.188 76.438,185.417 76.266 C 185.646 76.094,185.833 75.846,185.833 75.715 C 185.833 75.473,186.220 75.000,186.417 75.000 C 186.556 75.000,187.000 74.556,187.000 74.417 C 187.000 74.244,187.461 73.833,187.655 73.833 C 187.753 73.833,187.833 73.753,187.833 73.655 C 187.833 73.461,188.244 73.000,188.417 73.000 C 188.556 73.000,189.000 72.556,189.000 72.417 C 189.000 72.244,189.461 71.833,189.655 71.833 C 189.753 71.833,189.833 71.764,189.833 71.679 C 189.833 71.594,190.621 70.731,191.583 69.762 C 193.024 68.310,193.333 67.911,193.333 67.499 L 193.333 67.000 177.333 67.000 C 166.778 67.000,161.333 66.943,161.333 66.833 C 161.333 66.741,160.889 66.667,160.333 66.667 C 159.556 66.667,159.333 66.611,159.333 66.417 C 159.333 66.242,159.157 66.167,158.750 66.167 C 158.429 66.167,158.167 66.092,158.167 66.000 C 158.167 65.908,157.979 65.833,157.750 65.833 C 157.521 65.833,157.333 65.762,157.333 65.674 C 157.333 65.587,157.071 65.391,156.750 65.239 C 156.429 65.087,156.167 64.896,156.167 64.814 C 156.167 64.733,155.979 64.667,155.750 64.667 C 155.521 64.667,155.333 64.571,155.333 64.453 C 155.333 64.336,155.183 64.132,155.000 64.000 C 154.817 63.868,154.667 63.667,154.667 63.554 C 154.667 63.441,154.479 63.161,154.250 62.932 C 154.021 62.703,153.833 62.397,153.833 62.252 C 153.833 62.108,153.721 61.946,153.583 61.894 C 153.446 61.841,153.333 61.618,153.333 61.399 C 153.333 61.179,153.258 61.000,153.167 61.000 C 153.075 61.000,153.000 60.592,153.000 60.093 C 153.000 59.594,152.925 59.140,152.833 59.083 C 152.742 59.027,152.667 58.722,152.667 58.407 C 152.667 58.091,152.742 57.833,152.833 57.833 C 152.926 57.833,153.000 57.389,153.000 56.833 C 153.000 56.278,153.074 55.833,153.167 55.833 C 153.258 55.833,153.333 55.646,153.333 55.417 C 153.333 55.157,153.428 55.000,153.583 55.000 C 153.739 55.000,153.833 54.843,153.833 54.583 C 153.833 54.354,153.908 54.167,154.000 54.167 C 154.092 54.167,154.167 53.979,154.167 53.750 C 154.167 53.521,154.247 53.333,154.345 53.333 C 154.615 53.333,155.000 52.893,155.000 52.583 C 155.000 52.274,155.385 51.833,155.655 51.833 C 155.753 51.833,155.833 51.753,155.833 51.655 C 155.833 51.461,156.244 51.000,156.417 51.000 C 156.476 51.000,156.628 50.906,156.756 50.792 C 157.308 50.297,157.496 50.167,157.660 50.167 C 157.755 50.167,157.833 50.092,157.833 50.000 C 157.833 49.908,157.949 49.833,158.091 49.833 C 158.233 49.833,158.523 49.646,158.735 49.417 C 158.948 49.188,159.282 49.000,159.477 49.000 C 159.673 49.000,159.833 48.925,159.833 48.833 C 159.833 48.742,160.015 48.667,160.238 48.667 C 160.461 48.667,160.755 48.554,160.893 48.417 C 161.030 48.279,161.298 48.167,161.488 48.167 C 161.678 48.167,161.833 48.092,161.833 48.000 C 161.833 47.908,162.171 47.833,162.583 47.833 C 163.139 47.833,163.333 47.769,163.333 47.583 C 163.333 47.363,164.843 47.333,175.924 47.333 L 188.515 47.333 188.924 46.924 C 189.149 46.699,189.333 46.437,189.333 46.341 C 189.333 46.245,189.414 46.167,189.512 46.167 C 189.743 46.167,190.167 45.743,190.167 45.512 C 190.167 45.414,190.247 45.333,190.345 45.333 C 190.546 45.333,191.000 44.921,191.000 44.739 C 191.000 44.674,191.262 44.397,191.583 44.123 C 191.904 43.848,192.167 43.484,192.167 43.312 C 192.167 43.140,192.247 43.000,192.345 43.000 C 192.539 43.000,193.000 42.590,193.000 42.417 C 193.000 42.244,193.461 41.833,193.655 41.833 C 193.753 41.833,193.833 41.753,193.833 41.655 C 193.833 41.461,194.244 41.000,194.417 41.000 C 194.556 41.000,195.000 40.556,195.000 40.417 C 195.000 40.244,195.461 39.833,195.655 39.833 C 195.753 39.833,195.833 39.764,195.833 39.680 C 195.833 39.595,196.546 38.807,197.417 37.930 C 198.710 36.626,199.000 36.242,199.000 35.833 L 199.000 35.333 181.708 35.353 C 172.198 35.363,164.285 35.406,164.125 35.448 M211.277 35.855 C 210.941 36.141,210.667 36.516,210.667 36.688 C 210.667 36.860,210.586 37.000,210.488 37.000 C 210.257 37.000,209.833 37.424,209.833 37.655 C 209.833 37.753,209.753 37.833,209.655 37.833 C 209.461 37.833,209.000 38.244,209.000 38.417 C 209.000 38.556,208.556 39.000,208.417 39.000 C 208.244 39.000,207.833 39.461,207.833 39.655 C 207.833 39.753,207.753 39.833,207.655 39.833 C 207.461 39.833,207.000 40.244,207.000 40.417 C 207.000 40.577,206.546 41.000,206.373 41.000 C 206.291 41.000,206.127 41.179,206.010 41.398 C 205.893 41.617,205.617 41.893,205.398 42.010 C 205.179 42.127,205.000 42.291,205.000 42.373 C 205.000 42.581,204.562 43.000,204.345 43.000 C 204.247 43.000,204.167 43.078,204.167 43.172 C 204.167 43.267,203.642 43.860,203.000 44.489 C 202.358 45.118,201.833 45.745,201.833 45.882 C 201.833 46.019,201.721 46.174,201.583 46.227 C 201.437 46.283,201.333 46.533,201.333 46.828 L 201.333 47.333 221.399 47.333 C 239.081 47.333,241.476 47.363,241.560 47.583 C 241.616 47.729,241.866 47.833,242.161 47.833 C 242.439 47.833,242.667 47.908,242.667 48.000 C 242.667 48.092,242.777 48.167,242.911 48.167 C 243.239 48.167,244.167 49.090,244.167 49.416 C 244.167 49.560,244.279 49.720,244.417 49.773 C 244.732 49.894,244.789 52.667,244.477 52.667 C 244.221 52.667,243.845 53.181,243.839 53.542 C 243.836 53.702,243.721 53.833,243.583 53.833 C 243.446 53.833,243.333 53.908,243.333 54.000 C 243.333 54.092,243.218 54.167,243.078 54.167 C 242.938 54.167,242.780 54.279,242.727 54.417 C 242.674 54.554,242.527 54.667,242.399 54.667 C 242.271 54.667,242.167 54.742,242.167 54.833 C 242.167 54.925,242.021 55.000,241.843 55.000 C 241.665 55.000,241.473 55.075,241.417 55.167 C 241.360 55.258,241.136 55.333,240.919 55.333 C 240.702 55.333,240.411 55.446,240.274 55.583 C 240.133 55.724,239.726 55.833,239.345 55.833 C 238.972 55.833,238.667 55.908,238.667 55.999 C 238.667 56.108,231.931 56.180,219.042 56.208 L 199.417 56.250 199.366 57.042 C 199.338 57.477,199.244 57.833,199.158 57.833 C 199.071 57.833,199.000 58.358,199.000 59.000 C 199.000 59.667,198.929 60.167,198.833 60.167 C 198.737 60.167,198.667 60.694,198.667 61.417 C 198.667 62.417,198.617 62.667,198.417 62.667 C 198.222 62.667,198.167 62.889,198.167 63.667 C 198.167 64.222,198.093 64.667,198.000 64.667 C 197.905 64.667,197.833 65.161,197.833 65.816 C 197.833 66.683,197.772 66.988,197.583 67.060 C 197.397 67.132,197.333 67.430,197.333 68.235 C 197.333 68.828,197.258 69.360,197.167 69.417 C 197.075 69.473,197.000 69.965,197.000 70.510 C 197.000 71.059,196.926 71.500,196.833 71.500 C 196.738 71.500,196.667 72.000,196.667 72.667 C 196.667 73.593,196.615 73.833,196.417 73.833 C 196.218 73.833,196.167 74.074,196.167 75.000 C 196.167 75.667,196.095 76.167,196.000 76.167 C 195.904 76.167,195.833 76.695,195.833 77.418 L 195.833 78.670 202.792 78.627 L 209.750 78.583 209.800 77.625 C 209.827 77.098,209.921 76.667,210.008 76.667 C 210.095 76.667,210.167 76.211,210.167 75.655 C 210.167 74.978,210.249 74.560,210.417 74.393 C 210.583 74.227,210.667 73.811,210.667 73.155 C 210.667 72.607,210.741 72.167,210.833 72.167 C 210.929 72.167,211.000 71.667,211.000 71.000 C 211.000 70.333,211.071 69.833,211.167 69.833 C 211.258 69.833,211.333 69.421,211.333 68.917 C 211.333 67.208,210.518 67.333,221.667 67.333 C 231.272 67.333,231.333 67.335,231.333 67.672 C 231.333 67.858,231.446 68.054,231.583 68.106 C 231.721 68.159,231.833 68.307,231.833 68.434 C 231.833 68.562,231.908 68.667,232.000 68.667 C 232.092 68.667,232.167 68.817,232.167 69.000 C 232.167 69.185,232.278 69.333,232.417 69.333 C 232.554 69.333,232.667 69.446,232.667 69.583 C 232.667 69.721,232.742 69.833,232.833 69.833 C 232.925 69.833,233.002 69.965,233.005 70.125 C 233.012 70.485,233.387 71.000,233.643 71.000 C 233.748 71.000,233.833 71.155,233.833 71.345 C 233.833 71.714,234.194 72.167,234.488 72.167 C 234.586 72.167,234.667 72.338,234.667 72.547 C 234.667 72.755,234.817 73.035,235.000 73.167 C 235.183 73.299,235.333 73.543,235.333 73.709 C 235.333 73.875,235.446 74.054,235.583 74.106 C 235.721 74.159,235.833 74.307,235.833 74.434 C 235.833 74.562,235.908 74.667,236.000 74.667 C 236.092 74.667,236.167 74.817,236.167 75.000 C 236.167 75.185,236.278 75.333,236.417 75.333 C 236.554 75.333,236.667 75.446,236.667 75.583 C 236.667 75.721,236.742 75.833,236.833 75.833 C 236.925 75.833,237.002 75.965,237.005 76.125 C 237.012 76.485,237.387 77.000,237.643 77.000 C 237.748 77.000,237.833 77.155,237.833 77.345 C 237.833 77.714,238.194 78.167,238.488 78.167 C 238.586 78.167,238.667 78.279,238.667 78.417 C 238.667 78.636,239.796 78.667,247.833 78.667 L 257.000 78.667 257.000 78.145 C 257.000 77.764,256.842 77.474,256.417 77.073 C 256.096 76.770,255.833 76.442,255.833 76.345 C 255.833 76.247,255.721 76.167,255.583 76.167 C 255.444 76.167,255.333 76.019,255.333 75.833 C 255.333 75.650,255.258 75.500,255.167 75.500 C 255.075 75.500,255.000 75.420,255.000 75.321 C 255.000 75.091,254.576 74.667,254.345 74.667 C 254.247 74.667,254.167 74.508,254.167 74.313 C 254.167 74.112,253.844 73.651,253.417 73.241 C 253.004 72.846,252.667 72.454,252.667 72.371 C 252.667 72.287,252.479 72.001,252.250 71.734 C 252.021 71.468,251.834 71.194,251.834 71.125 C 251.833 71.056,251.721 71.000,251.583 71.000 C 251.446 71.000,251.333 70.857,251.333 70.682 C 251.333 70.507,250.996 70.017,250.583 69.592 C 250.171 69.168,249.833 68.741,249.833 68.644 C 249.833 68.546,249.571 68.204,249.250 67.883 C 248.929 67.562,248.667 67.232,248.667 67.150 C 248.667 67.067,248.586 67.000,248.488 67.000 C 248.232 67.000,247.833 66.565,247.833 66.285 C 247.833 66.154,247.646 65.906,247.417 65.734 C 247.188 65.562,247.000 65.326,247.000 65.210 C 247.000 65.095,246.925 65.000,246.833 65.000 C 246.742 65.000,246.667 64.925,246.667 64.833 C 246.667 64.742,246.817 64.667,247.000 64.667 C 247.185 64.667,247.333 64.556,247.333 64.417 C 247.333 64.243,247.508 64.167,247.907 64.167 C 248.222 64.167,248.527 64.092,248.583 64.000 C 248.640 63.908,248.909 63.833,249.182 63.833 C 249.468 63.833,249.718 63.728,249.773 63.583 C 249.826 63.446,250.007 63.333,250.175 63.333 C 250.343 63.333,250.527 63.258,250.583 63.167 C 250.640 63.075,250.832 63.000,251.010 63.000 C 251.188 63.000,251.333 62.925,251.333 62.833 C 251.333 62.742,251.446 62.667,251.583 62.667 C 251.721 62.667,251.833 62.554,251.833 62.417 C 251.833 62.279,251.965 62.164,252.125 62.161 C 252.485 62.155,253.000 61.779,253.000 61.523 C 253.000 61.419,253.154 61.333,253.341 61.333 C 253.689 61.333,255.333 59.826,255.333 59.508 C 255.333 59.412,255.414 59.333,255.512 59.333 C 255.806 59.333,256.167 58.881,256.167 58.512 C 256.167 58.322,256.247 58.167,256.345 58.167 C 256.619 58.167,257.000 57.724,257.000 57.406 C 257.000 57.250,257.188 56.948,257.417 56.735 C 257.646 56.523,257.833 56.238,257.833 56.101 C 257.833 55.965,257.908 55.807,258.000 55.750 C 258.092 55.693,258.167 55.434,258.167 55.175 C 258.167 54.909,258.276 54.660,258.417 54.606 C 258.554 54.554,258.667 54.363,258.667 54.182 C 258.667 54.001,258.742 53.807,258.833 53.750 C 258.925 53.693,259.000 53.239,259.000 52.740 C 259.000 52.241,259.075 51.833,259.167 51.833 C 259.272 51.833,259.333 50.667,259.333 48.667 C 259.333 46.667,259.272 45.500,259.167 45.500 C 259.075 45.500,259.000 45.200,259.000 44.833 C 259.000 44.467,258.925 44.167,258.833 44.167 C 258.742 44.167,258.667 44.014,258.667 43.828 C 258.667 43.642,258.554 43.446,258.417 43.394 C 258.279 43.341,258.167 43.156,258.167 42.982 C 258.167 42.809,258.092 42.667,258.000 42.667 C 257.908 42.667,257.833 42.479,257.833 42.250 C 257.833 41.991,257.739 41.833,257.583 41.833 C 257.446 41.833,257.333 41.755,257.333 41.659 C 257.333 41.563,257.146 41.297,256.917 41.068 C 256.688 40.839,256.500 40.542,256.500 40.409 C 256.500 40.276,256.350 40.167,256.167 40.167 C 255.983 40.167,255.833 40.092,255.833 40.000 C 255.833 39.908,255.721 39.833,255.583 39.833 C 255.446 39.833,255.333 39.753,255.333 39.655 C 255.333 39.424,254.909 39.000,254.679 39.000 C 254.580 39.000,254.500 38.925,254.500 38.833 C 254.500 38.742,254.350 38.667,254.167 38.667 C 253.981 38.667,253.833 38.556,253.833 38.417 C 253.833 38.261,253.676 38.167,253.417 38.167 C 253.188 38.167,253.000 38.092,253.000 38.000 C 253.000 37.908,252.821 37.833,252.601 37.833 C 252.382 37.833,252.159 37.721,252.106 37.583 C 252.054 37.446,251.858 37.333,251.672 37.333 C 251.486 37.333,251.333 37.258,251.333 37.167 C 251.333 37.075,251.071 37.000,250.750 37.000 C 250.429 37.000,250.167 36.925,250.167 36.833 C 250.167 36.742,249.912 36.667,249.601 36.667 C 249.252 36.667,248.999 36.571,248.940 36.417 C 248.870 36.236,248.588 36.167,247.922 36.167 C 247.415 36.167,247.000 36.092,247.000 36.000 C 247.000 35.905,246.507 35.833,245.854 35.833 C 245.038 35.833,244.648 35.761,244.500 35.583 C 244.318 35.364,242.289 35.333,228.090 35.333 L 211.887 35.333 211.277 35.855 M271.698 40.937 C 267.361 45.302,266.158 46.603,266.198 46.887 L 266.250 47.250 286.208 47.292 C 303.795 47.330,306.167 47.364,306.167 47.584 C 306.167 47.721,306.247 47.833,306.345 47.833 C 306.576 47.833,307.000 48.257,307.000 48.488 C 307.000 48.586,307.075 48.667,307.167 48.667 C 307.258 48.667,307.333 48.854,307.333 49.083 C 307.333 49.313,307.258 49.500,307.167 49.500 C 307.075 49.500,307.000 49.730,307.000 50.012 C 307.000 50.523,306.684 51.000,306.345 51.000 C 306.247 51.000,306.167 51.075,306.167 51.167 C 306.167 51.258,306.063 51.333,305.937 51.333 C 305.811 51.333,305.614 51.446,305.500 51.583 C 305.363 51.749,304.990 51.833,304.396 51.833 C 303.903 51.833,303.500 51.908,303.500 52.000 C 303.500 52.110,297.028 52.167,284.417 52.167 L 265.333 52.167 265.333 52.583 C 265.333 52.813,265.258 53.000,265.167 53.000 C 265.072 53.000,265.000 53.497,265.000 54.157 C 265.000 54.793,264.925 55.360,264.833 55.417 C 264.742 55.473,264.667 55.957,264.667 56.492 C 264.667 57.203,264.599 57.490,264.417 57.560 C 264.230 57.632,264.167 57.931,264.167 58.745 C 264.167 59.359,264.094 59.833,264.000 59.833 C 263.905 59.833,263.833 60.327,263.833 60.982 C 263.833 61.850,263.772 62.155,263.583 62.227 C 263.403 62.296,263.333 62.578,263.333 63.235 C 263.333 63.737,263.258 64.193,263.167 64.250 C 263.075 64.307,263.000 64.874,263.000 65.510 C 263.000 66.170,262.928 66.667,262.833 66.667 C 262.738 66.667,262.667 67.167,262.667 67.833 C 262.667 68.759,262.615 69.000,262.417 69.000 C 262.222 69.000,262.167 69.221,262.167 69.990 C 262.167 70.535,262.092 71.027,262.000 71.083 C 261.908 71.140,261.833 71.660,261.833 72.239 C 261.833 72.972,261.757 73.356,261.583 73.500 C 261.409 73.645,261.333 74.029,261.333 74.770 C 261.333 75.368,261.260 75.833,261.167 75.833 C 261.069 75.833,261.000 76.417,261.000 77.250 L 261.000 78.667 282.505 78.667 C 301.467 78.667,304.022 78.637,304.106 78.417 C 304.180 78.226,304.493 78.167,305.434 78.167 C 306.145 78.167,306.667 78.096,306.667 78.000 C 306.667 77.908,307.071 77.833,307.566 77.833 C 308.211 77.833,308.491 77.763,308.560 77.583 C 308.620 77.426,308.875 77.333,309.245 77.333 C 309.568 77.333,309.833 77.258,309.833 77.167 C 309.833 77.075,310.096 77.000,310.417 77.000 C 310.737 77.000,311.000 76.925,311.000 76.833 C 311.000 76.742,311.152 76.667,311.339 76.667 C 311.525 76.667,311.720 76.554,311.773 76.417 C 311.826 76.279,311.962 76.167,312.076 76.167 C 312.396 76.167,313.333 75.661,313.333 75.488 C 313.333 75.403,313.429 75.333,313.547 75.333 C 313.664 75.333,313.868 75.183,314.000 75.000 C 314.132 74.817,314.331 74.667,314.442 74.667 C 314.705 74.667,316.167 73.264,316.167 73.012 C 316.167 72.905,316.354 72.644,316.583 72.431 C 316.813 72.219,317.000 71.885,317.000 71.689 C 317.000 71.493,317.075 71.333,317.167 71.333 C 317.258 71.333,317.333 71.191,317.333 71.018 C 317.333 70.844,317.446 70.659,317.583 70.606 C 317.721 70.554,317.833 70.363,317.833 70.182 C 317.833 70.001,317.908 69.807,318.000 69.750 C 318.092 69.693,318.167 69.314,318.167 68.907 C 318.167 68.360,318.232 68.167,318.417 68.167 C 318.621 68.167,318.667 67.880,318.667 66.583 C 318.667 65.639,318.734 65.000,318.833 65.000 C 318.925 65.000,319.000 64.737,319.000 64.417 C 319.000 64.096,318.925 63.833,318.833 63.833 C 318.736 63.833,318.667 63.276,318.667 62.495 C 318.667 61.459,318.610 61.135,318.417 61.060 C 318.262 61.001,318.167 60.748,318.167 60.399 C 318.167 60.088,318.092 59.833,318.000 59.833 C 317.908 59.833,317.833 59.694,317.833 59.523 C 317.833 59.353,317.646 59.073,317.417 58.900 C 317.188 58.728,317.000 58.525,317.000 58.449 C 317.000 58.250,316.557 57.833,316.345 57.833 C 316.247 57.833,316.167 57.753,316.167 57.655 C 316.167 57.424,315.743 57.000,315.512 57.000 C 315.414 57.000,315.333 56.925,315.333 56.833 C 315.333 56.742,315.183 56.667,315.000 56.667 C 314.815 56.667,314.667 56.556,314.667 56.417 C 314.667 56.278,314.815 56.167,315.000 56.167 C 315.183 56.167,315.333 56.092,315.333 56.000 C 315.333 55.908,315.486 55.833,315.672 55.833 C 315.858 55.833,316.054 55.721,316.106 55.583 C 316.159 55.446,316.290 55.333,316.398 55.333 C 316.505 55.333,316.701 55.183,316.833 55.000 C 316.965 54.817,317.167 54.667,317.281 54.667 C 317.551 54.667,318.667 53.551,318.667 53.281 C 318.667 53.167,318.817 52.965,319.000 52.833 C 319.183 52.701,319.333 52.422,319.333 52.213 C 319.333 51.987,319.434 51.833,319.583 51.833 C 319.721 51.833,319.833 51.721,319.833 51.583 C 319.833 51.446,319.908 51.333,320.000 51.333 C 320.092 51.333,320.167 51.079,320.167 50.768 C 320.167 50.419,320.262 50.166,320.417 50.106 C 320.563 50.050,320.667 49.801,320.667 49.505 C 320.667 49.227,320.742 49.000,320.833 49.000 C 320.938 49.000,321.000 47.889,321.000 46.000 C 321.000 44.111,320.938 43.000,320.833 43.000 C 320.742 43.000,320.667 42.737,320.667 42.417 C 320.667 42.009,320.591 41.833,320.417 41.833 C 320.261 41.833,320.167 41.676,320.167 41.417 C 320.167 41.188,320.092 41.000,320.000 41.000 C 319.908 41.000,319.833 40.813,319.833 40.583 C 319.833 40.354,319.753 40.167,319.655 40.167 C 319.461 40.167,319.000 39.756,319.000 39.583 C 319.000 39.444,318.556 39.000,318.417 39.000 C 318.244 39.000,317.833 38.539,317.833 38.345 C 317.833 38.247,317.721 38.167,317.583 38.167 C 317.446 38.167,317.333 38.092,317.333 38.000 C 317.333 37.908,317.191 37.833,317.018 37.833 C 316.844 37.833,316.659 37.721,316.606 37.583 C 316.554 37.446,316.358 37.333,316.172 37.333 C 315.986 37.333,315.833 37.258,315.833 37.167 C 315.833 37.075,315.646 37.000,315.417 37.000 C 315.188 37.000,315.000 36.925,315.000 36.833 C 315.000 36.742,314.737 36.667,314.417 36.667 C 314.009 36.667,313.833 36.591,313.833 36.417 C 313.833 36.243,313.659 36.167,313.260 36.167 C 312.944 36.167,312.640 36.092,312.583 36.000 C 312.527 35.908,311.968 35.833,311.341 35.833 C 310.483 35.833,310.179 35.772,310.106 35.583 C 310.022 35.363,308.042 35.334,293.630 35.342 L 277.250 35.351 271.698 40.937 M383.947 35.442 C 383.885 35.504,383.833 35.806,383.833 36.111 L 383.833 36.667 384.833 36.667 L 385.833 36.667 385.833 38.833 L 385.833 41.000 386.417 41.000 L 387.000 41.000 387.000 38.833 L 387.000 36.667 388.000 36.667 L 389.000 36.667 389.000 38.833 L 389.000 41.000 389.583 41.000 L 390.167 41.000 390.167 40.000 C 390.167 39.222,390.222 39.000,390.417 39.000 C 390.554 39.000,390.667 39.131,390.667 39.292 C 390.668 40.301,392.502 41.154,392.637 40.208 C 392.666 40.002,392.760 39.833,392.845 39.833 C 392.930 39.833,393.000 39.721,393.000 39.583 C 393.000 39.446,393.075 39.333,393.167 39.333 C 393.258 39.333,393.333 39.708,393.333 40.167 L 393.333 41.000 394.171 41.000 L 395.008 41.000 394.962 38.208 L 394.917 35.417 394.260 35.363 C 393.560 35.306,393.012 35.748,393.004 36.375 C 393.002 36.535,392.925 36.667,392.833 36.667 C 392.742 36.667,392.667 36.809,392.667 36.982 C 392.667 37.156,392.554 37.341,392.417 37.394 C 392.279 37.446,392.167 37.642,392.167 37.828 C 392.167 38.014,392.092 38.167,392.000 38.167 C 391.908 38.167,391.833 38.092,391.833 38.000 C 391.833 37.908,391.721 37.833,391.583 37.833 C 391.428 37.833,391.333 37.676,391.333 37.417 C 391.333 37.188,391.258 37.000,391.167 37.000 C 391.075 37.000,390.998 36.869,390.995 36.708 C 390.988 36.348,390.613 35.833,390.357 35.833 C 390.252 35.833,390.167 35.726,390.167 35.594 C 390.167 35.339,384.196 35.193,383.947 35.442 M302.667 62.000 C 302.667 62.092,302.921 62.167,303.232 62.167 C 303.581 62.167,303.834 62.262,303.894 62.417 C 303.946 62.554,304.142 62.667,304.328 62.667 C 304.556 62.667,304.667 62.776,304.667 63.000 C 304.667 63.183,304.742 63.333,304.833 63.333 C 304.925 63.333,305.000 63.633,305.000 64.000 C 305.000 64.367,304.925 64.667,304.833 64.667 C 304.742 64.667,304.667 64.777,304.667 64.912 C 304.667 65.478,303.195 66.667,302.496 66.667 C 302.131 66.667,301.833 66.742,301.833 66.833 C 301.833 66.943,297.583 67.000,289.417 67.000 L 277.000 67.000 277.000 66.167 C 277.000 65.708,277.075 65.333,277.167 65.333 C 277.262 65.333,277.333 64.833,277.333 64.167 C 277.333 63.241,277.385 63.000,277.583 63.000 C 277.758 63.000,277.833 62.824,277.833 62.417 L 277.833 61.833 290.250 61.833 C 298.417 61.833,302.667 61.890,302.667 62.000 " stroke="none" fill="#f46404" fill-rule="evenodd"></path><path id="path2" d="" stroke="none" fill="#f4f8bc" fill-rule="evenodd"></path><path id="path3" d="" stroke="none" fill="#f4b040" fill-rule="evenodd"></path><path id="path4" d="" stroke="none" fill="#f46444" fill-rule="evenodd"></path></g></svg>